<svg id="Layer_1" data-name="Layer 1" xmlns="http://www.w3.org/2000/svg" viewBox="0 0 272.9 105.27"><title>em</title><path d="M81.83,54.76c-.08,1-.12,1.65-.12,2.08a16.79,16.79,0,0,0,.75,5,12.2,12.2,0,0,0,2,4.05,9.34,9.34,0,0,0,3.26,2.57,9.16,9.16,0,0,0,4.07.94,8.6,8.6,0,0,0,3-.52,6.58,6.58,0,0,0,2.35-1.47A8.29,8.29,0,0,0,99,64.11l.61.2a8.15,8.15,0,0,1-3.26,5.17,11.42,11.42,0,0,1-6.67,1.75,15.22,15.22,0,0,1-6.18-1.14,11.07,11.07,0,0,1-4.37-3.52,13.16,13.16,0,0,1-2.49-8.14,12.51,12.51,0,0,1,4.72-10.35,12.26,12.26,0,0,1,7.82-2.72,11.22,11.22,0,0,1,4.34.83A8.85,8.85,0,0,1,99,54.76ZM94.6,53.62a10.87,10.87,0,0,0-1.08-4.51,6,6,0,0,0-2.1-2.27,5.1,5.1,0,0,0-2.8-.84,5.7,5.7,0,0,0-4.39,2.17A9.73,9.73,0,0,0,82,53.62Z"/><path d="M149.23,32a9.42,9.42,0,0,0-2.68.46,5.14,5.14,0,0,0-1.86,1.21,4.07,4.07,0,0,0-1,1.37,6.34,6.34,0,0,0-.44,1.89,26.65,26.65,0,0,0-.21,3.6V62.11a21.13,21.13,0,0,0,.35,4.48,4.81,4.81,0,0,0,1.26,2.35,6.85,6.85,0,0,0,4.54,1.7v.67H130.51v-.67a9,9,0,0,0,2.74-.49,4.85,4.85,0,0,0,3.11-3.6,21.67,21.67,0,0,0,.34-4.44V35.92L121.61,71.31H121L106,36.45V62.11a21.69,21.69,0,0,0,.34,4.46,5,5,0,0,0,1.24,2.37,5.08,5.08,0,0,0,1.87,1.23,9.61,9.61,0,0,0,2.71.47v.67H98.64v-.67a9.68,9.68,0,0,0,2.71-.47,5.12,5.12,0,0,0,1.86-1.23,5,5,0,0,0,1.24-2.39,21,21,0,0,0,.34-4.44V40.52q0-1.35-.09-2.55a8.21,8.21,0,0,0-.67-3.16,4.72,4.72,0,0,0-2-2A8.42,8.42,0,0,0,98.64,32v-.67h12.71L124,62.64l13.15-31.32h12Z" style="fill:#a10000"/></svg>