<svg id="Layer_1" data-name="Layer 1" xmlns="http://www.w3.org/2000/svg" viewBox="0 0 72.62 39.99"><title>em</title><path d="M10.27,48c-.08,1-.12,1.65-.12,2.08a17.11,17.11,0,0,0,.74,5,12.4,12.4,0,0,0,2,4,9.53,9.53,0,0,0,7.33,3.51,8.29,8.29,0,0,0,3-.53,6.39,6.39,0,0,0,2.35-1.46,8.17,8.17,0,0,0,1.82-3.28l.61.2a8.16,8.16,0,0,1-3.27,5.17,11.39,11.39,0,0,1-6.66,1.75,15.05,15.05,0,0,1-6.18-1.15,11,11,0,0,1-4.37-3.51,13.17,13.17,0,0,1-2.49-8.15A12.47,12.47,0,0,1,9.77,41.35a12.24,12.24,0,0,1,7.82-2.72,11.26,11.26,0,0,1,4.34.83A8.83,8.83,0,0,1,27.43,48ZM23,46.89A11.19,11.19,0,0,0,22,42.38a6,6,0,0,0-2.1-2.27,5.1,5.1,0,0,0-2.8-.84,5.7,5.7,0,0,0-4.39,2.17,9.66,9.66,0,0,0-2.23,5.45Z" transform="translate(-5.05 -24.59)"/><path d="M77.67,25.26a9.42,9.42,0,0,0-2.68.46,5.14,5.14,0,0,0-1.86,1.21,4.07,4.07,0,0,0-1,1.37,6,6,0,0,0-.44,1.89,26.65,26.65,0,0,0-.21,3.6V55.38a21.13,21.13,0,0,0,.35,4.48,4.81,4.81,0,0,0,1.26,2.35,6.85,6.85,0,0,0,4.54,1.7v.67H59v-.67a9,9,0,0,0,2.74-.49,5.24,5.24,0,0,0,1.86-1.21,5,5,0,0,0,1.25-2.39,21.82,21.82,0,0,0,.33-4.44V29.19L50.05,64.58h-.62l-15-34.86V55.38a20.82,20.82,0,0,0,.34,4.45A5,5,0,0,0,36,62.21a5.12,5.12,0,0,0,1.86,1.23,9.75,9.75,0,0,0,2.71.47v.67H27.08v-.67a9.75,9.75,0,0,0,2.71-.47,5.12,5.12,0,0,0,1.86-1.23,5,5,0,0,0,1.24-2.39,21,21,0,0,0,.34-4.44V33.79q0-1.35-.09-2.55a8.41,8.41,0,0,0-.67-3.16,4.72,4.72,0,0,0-2-2,8.46,8.46,0,0,0-3.38-.78v-.67H39.79L52.48,55.91,65.63,24.59h12Z" transform="translate(-5.05 -24.59)" style="fill:#a10000"/></svg>